<svg width="372.36365" height="372.36365" viewBox="0 0 372.36365 372.36365" xmlns="http://www.w3.org/2000/svg">
  <g>
    <path fill="currentColor" d="m 303.53948,360.61472 c -5.67755,-1.18527 -7.02111,-2.87702 -16.80342,-21.15795 -5.24347,-9.79888 -5.88094,-12.23361 -4.12898,-15.77069 2.46546,-4.97764 3.02296,-5.06097 33.86056,-5.06097 32.90106,0 31.66795,-0.27582 37.13239,8.30586 1.91971,3.01482 3.49039,5.66757 3.49039,5.89498 0,0.22741 1.94525,3.87753 4.3228,8.11136 3.28099,5.84266 4.32416,8.49052 4.32838,10.98668 0.008,4.49949 -2.31483,8.2555 -5.51824,8.92439 -3.38232,0.70626 -53.16457,0.50105 -56.68388,-0.23366 z M 36.740516,359.60139 c -6.971419,-0.83878 -12.822325,-3.89867 -18.163347,-9.49897 -6.791646,-7.12137 -8.327762,-11.02352 -8.6575493,-21.9925 -0.33845,-11.25707 -0.05143,-12.2199 7.9782253,-26.76764 9.252566,-16.76326 30.175573,-54.52542 33.474082,-60.41454 1.519688,-2.71325 4.073796,-7.33809 5.67578,-10.27743 1.601994,-2.93935 4.147351,-7.56419 5.656363,-10.27744 4.540182,-8.16338 25.779915,-46.22303 31.200952,-55.90923 5.67822,-10.14571 6.777558,-12.13718 11.667068,-21.13494 1.89352,-3.48449 5.60895,-10.14427 8.2565,-14.79951 2.64757,-4.65523 6.25983,-11.05397 8.02728,-14.21942 1.76744,-3.16545 4.68292,-8.34526 6.47882,-11.5107 1.79591,-3.165452 4.32822,-7.790303 5.62734,-10.277443 1.29914,-2.48714 3.9572,-7.296975 5.90682,-10.688529 1.94962,-3.391552 7.01682,-12.456247 11.26044,-20.143765 4.24363,-7.687518 9.73656,-17.492189 12.20653,-21.788155 2.46998,-4.295966 6.88827,-12.158202 9.81842,-17.471633 2.93015,-5.313432 5.55801,-9.654322 5.83968,-9.646422 0.2817,0.008 1.79208,2.320323 3.35642,5.138715 1.56434,2.818395 6.67382,11.969122 11.35439,20.334952 9.67644,17.295191 20.00791,36.224812 21.76389,39.876433 1.09794,2.283186 10.29235,18.88636 23.67613,42.754117 3.04288,5.42648 7.48197,13.38121 9.86464,17.67718 8.22601,14.83155 10.30418,18.55393 18.36084,32.88778 4.44804,7.91363 10.09439,18.08828 12.54744,22.61035 2.45305,4.52206 6.93502,12.66179 9.95993,18.08827 3.02491,5.42649 8.26461,14.86118 11.64378,20.96597 3.37916,6.10479 7.29706,13.13456 8.70643,15.6217 1.40936,2.48714 3.44186,6.18701 4.51666,8.22194 1.07479,2.03494 3.54236,6.47478 5.48347,9.86633 9.45639,16.52243 15.5996,28.0022 15.5996,29.15087 0,1.82464 -162.07201,1.92578 -167.81872,0.10469 -14.16325,-4.48818 -22.79326,-15.52272 -23.41752,-29.94227 -0.68065,-15.72146 6.56829,-27.41097 20.63589,-33.27698 3.74936,-1.56344 6.07439,-1.70879 32.19482,-2.01269 20.83441,-0.2424 28.1514,-0.57819 28.14508,-1.29162 -0.005,-0.53025 -2.36349,-5.21893 -5.24177,-10.41932 -2.87827,-5.20037 -6.72491,-12.23014 -8.54808,-15.62169 -5.94657,-11.0621 -6.56772,-12.18491 -8.60345,-15.55173 -1.10609,-1.82934 -2.01108,-3.51381 -2.01108,-3.74327 0,-0.22945 -2.24085,-4.39916 -4.97965,-9.26602 -2.73882,-4.86686 -5.97345,-10.69878 -7.18807,-12.95981 -6.96154,-12.95887 -9.44277,-16.90479 -10.49064,-16.68329 -0.62293,0.13167 -5.20209,7.63916 -10.17588,16.68329 -4.9738,9.04414 -10.4797,19.03382 -12.23532,22.19927 -1.7556,3.16544 -4.49705,8.16027 -6.09205,11.09961 -2.65686,4.89613 -10.31557,18.80329 -50.259108,91.2636 -7.602975,13.79231 -14.712012,26.74187 -15.79786,28.7768 -6.109466,11.44939 -16.326119,29.55489 -17.984714,31.87173 -6.218473,8.68638 -18.109475,13.73 -29.218902,12.39333 z" />
  </g>
</svg>