<svg class="icon" style="width: 1em;height: 1em;vertical-align: middle;fill: currentColor;overflow: hidden;" viewBox="0 0 1024 1024" version="1.1" xmlns="http://www.w3.org/2000/svg" p-id="5301">
  <path d="M426.666667 128c38.741333 2.389333 23.466667 41.344-0.128 42.666667-48.213333-0.170667-55.765333 0-101.205334 0-20.010667 0-38.912 1.92-56.192 8.064-56.832 20.181333-97.152 76.373333-99.328 137.216-1.408 130.730667-1.237333 261.461333 0.64 392.149333 3.029333 76.501333 68.522667 142.250667 145.408 145.194667 130.688 1.621333 261.376 1.621333 392.106667 0 76.416-2.858667 142.677333-68.608 145.493333-145.578667 0.384-26.112 0-54.741333-0.085333-81.237333-0.256-45.184 1.194667-48.896 13.056-65.194667 8.362667-11.477333 28.672 3.84 29.568 19.498667l0.213333 123.349333c-1.237333 99.370667-85.205333 187.989333-187.264 191.786667-129.749333 1.621333-259.541333 0.085333-389.333333 0.085333-99.370667-1.28-187.776-84.992-191.829333-186.752-1.834667-129.877333-0.469333-259.754667-0.682667-389.632 1.109333-100.138667 85.504-188.672 187.946667-192.128 51.328 0.64 61.013333 0.810667 111.616 0.512z" fill="currentColor" p-id="5302"></path>
  <path d="M895.232 149.333333a21.333333 21.333333 0 0 0-21.333333-21.333333H682.666667a21.333333 21.333333 0 1 0 0 42.666667h191.232a21.333333 21.333333 0 0 0 21.333333-21.333334zM490.666667 149.333333A21.333333 21.333333 0 0 0 469.333333 128H362.666667a21.333333 21.333333 0 0 0 0 42.666667H469.333333a21.333333 21.333333 0 0 0 21.333334-21.333334zM874.666667 533.333333a21.333333 21.333333 0 0 0-21.333334 21.333334v106.666666a21.333333 21.333333 0 0 0 42.666667 0V554.666667a21.333333 21.333333 0 0 0-21.333333-21.333334z" fill="currentColor" p-id="5303"></path>
  <path d="M874.666667 128a21.333333 21.333333 0 0 0-21.333334 21.333333v191.232a21.333333 21.333333 0 1 0 42.666667 0V149.333333a21.333333 21.333333 0 0 0-21.333333-21.333333z" fill="currentColor" p-id="5304"></path>
  <path d="M864.682667 159.36a22.314667 22.314667 0 0 0-31.573334 0l-314.88 314.88a22.314667 22.314667 0 0 0 31.573334 31.530667l314.88-314.88a22.314667 22.314667 0 0 0 0-31.573334z" fill="currentColor" p-id="5305"></path>
</svg>